<svg width="239" height="239" viewBox="0 0 239 239" fill="none" xmlns="http://www.w3.org/2000/svg">
<path fill-rule="evenodd" clip-rule="evenodd" d="M119.5 19.9166C158.039 19.9166 189.208 51.0862 189.208 89.625C189.208 141.906 119.5 219.083 119.5 219.083C119.5 219.083 49.7917 141.906 49.7917 89.625C49.7917 51.0862 80.9613 19.9166 119.5 19.9166ZM69.7084 89.625C69.7084 118.006 98.7867 161.425 119.5 188.013C140.612 161.225 169.292 118.305 169.292 89.625C169.292 62.14 146.985 39.8333 119.5 39.8333C92.015 39.8333 69.7084 62.14 69.7084 89.625ZM119.5 114.521C105.75 114.521 94.6042 103.375 94.6042 89.625C94.6042 75.8754 105.75 64.7291 119.5 64.7291C133.25 64.7291 144.396 75.8754 144.396 89.625C144.396 103.375 133.25 114.521 119.5 114.521Z" fill="#005990"/>
</svg>
