<svg width="25" height="17" viewBox="0 0 25 17" fill="none" xmlns="http://www.w3.org/2000/svg">
<path fill-rule="evenodd" clip-rule="evenodd" d="M0 8.5C0 8.24955 0.0940626 8.00936 0.261495 7.83227C0.428928 7.65518 0.656015 7.55569 0.8928 7.55569H21.9504L16.3311 1.61408C16.1635 1.43676 16.0693 1.19627 16.0693 0.945505C16.0693 0.694741 16.1635 0.454248 16.3311 0.276932C16.4987 0.0996152 16.7261 5.90819e-09 16.9632 0C17.2003 -5.90819e-09 17.4277 0.0996152 17.5953 0.276932L24.7377 7.83143C24.8208 7.91915 24.8868 8.02335 24.9318 8.13808C24.9768 8.2528 25 8.37579 25 8.5C25 8.62421 24.9768 8.7472 24.9318 8.86192C24.8868 8.97665 24.8208 9.08085 24.7377 9.16857L17.5953 16.7231C17.4277 16.9004 17.2003 17 16.9632 17C16.7261 17 16.4987 16.9004 16.3311 16.7231C16.1635 16.5458 16.0693 16.3053 16.0693 16.0545C16.0693 15.8037 16.1635 15.5632 16.3311 15.3859L21.9504 9.44431H0.8928C0.656015 9.44431 0.428928 9.34482 0.261495 9.16773C0.0940626 8.99064 0 8.75045 0 8.5Z" fill="white"/>
</svg>
