<svg width="20" height="20" viewBox="0 0 20 20" fill="none" xmlns="http://www.w3.org/2000/svg">
<path fill-rule="evenodd" clip-rule="evenodd" d="M16.3479 0.043524C15.9806 0.147253 15.8241 0.260205 15.2061 0.867703L14.5973 1.46621L14.4448 1.35373C14.3609 1.29188 14.2497 1.24129 14.1977 1.24129C13.9953 1.24129 11.9814 1.6 11.8756 1.65491C11.6641 1.76464 11.6164 2.03886 11.771 2.25597C11.9405 2.49408 14.2856 4.88243 14.4153 4.949C14.5792 5.03322 14.7671 5.00351 14.8881 4.87435C14.9604 4.79711 15.0175 4.57552 15.2052 3.64428C15.331 3.01959 15.4237 2.46618 15.4112 2.41449C15.3987 2.36284 15.3446 2.26131 15.2909 2.1889L15.1934 2.05723L15.6973 1.54847C15.9744 1.26865 16.2773 0.994273 16.3704 0.938778C16.7163 0.732537 17.1877 0.848354 17.4006 1.19188L17.4921 1.33941L17.5025 5.64637L17.5129 9.95333L9.22897 9.96349L0.944991 9.97366L0.72984 10.0762C-0.0592162 10.4523 -0.248393 11.4818 0.359507 12.0917C0.441147 12.1735 0.599889 12.2828 0.712276 12.3344L0.916669 12.4283L1.43444 14.2622C1.71922 15.2709 1.99587 16.2182 2.04926 16.3674C2.3847 17.305 3.19872 18.0298 4.16341 18.25C4.31664 18.285 4.50449 18.3136 4.58092 18.3136C4.65736 18.3136 4.71991 18.3215 4.71991 18.3313C4.71991 18.341 4.59669 18.5992 4.44608 18.905C4.29548 19.2108 4.17225 19.5111 4.17225 19.5722C4.17225 19.9281 4.56371 20.129 4.82447 19.907C4.89219 19.8494 5.07882 19.5223 5.30586 19.0632L5.67667 18.3136H10.0009H14.3251L14.6959 19.0632C14.923 19.5223 15.1096 19.8494 15.1773 19.907C15.4381 20.129 15.8295 19.9281 15.8295 19.5722C15.8295 19.5111 15.7063 19.2108 15.5557 18.905C15.4051 18.5992 15.2819 18.341 15.2819 18.3313C15.2819 18.3215 15.3444 18.3136 15.4209 18.3136C15.6324 18.3136 16.089 18.199 16.3546 18.0793C17.0051 17.7862 17.504 17.3096 17.8224 16.6771C17.8972 16.5284 18.1672 15.6548 18.5165 14.4304L19.0882 12.4269L19.291 12.3337C20.0626 11.9794 20.2436 10.9378 19.6391 10.3313C19.3971 10.0885 19.1213 9.98029 18.6949 9.96102L18.3331 9.94466L18.3322 5.6028L18.3313 1.26091L18.2374 1.03191C18.0494 0.573314 17.7403 0.258713 17.3228 0.101373C17.0351 -0.00706487 16.6152 -0.0319865 16.3479 0.043524ZM11.3881 4.62631C10.8374 5.18126 10.7842 5.27313 10.8805 5.50422C10.949 5.6689 11.0816 5.75465 11.2677 5.75465C11.4122 5.75465 11.4519 5.72482 11.9077 5.27388C12.175 5.00944 12.4201 4.7424 12.4525 4.68043C12.5881 4.42097 12.3753 4.10629 12.0644 4.10629C11.9109 4.10629 11.8826 4.12804 11.3881 4.62631ZM9.38603 4.99452C9.20248 5.0853 8.37384 5.95453 8.34959 6.08165C8.28837 6.40293 8.53242 6.64649 8.85668 6.5877C8.92807 6.57475 9.13082 6.40171 9.45957 6.0731C9.85885 5.674 9.96001 5.55045 9.98133 5.43561C10.0147 5.25626 9.92649 5.0725 9.76747 4.99001C9.62324 4.91516 9.54453 4.91611 9.38603 4.99452ZM10.5977 7.09885C9.98117 7.70874 9.93728 7.78652 10.0614 8.04901C10.1315 8.19708 10.2584 8.26643 10.4594 8.26643C10.5893 8.26643 10.6445 8.22279 11.1172 7.74641C11.4314 7.42981 11.6402 7.18801 11.6509 7.12828C11.7002 6.85195 11.5124 6.61807 11.2411 6.61807C11.0922 6.61807 11.0571 6.64433 10.5977 7.09885ZM3.73648 13.4411C3.81894 13.5297 3.89682 13.7524 4.11045 14.5106C4.25882 15.0373 4.40423 15.5166 4.43353 15.5758C4.50054 15.711 4.61867 15.7882 4.81333 15.8239C4.89696 15.8392 5.01819 15.8991 5.08269 15.957C5.17842 16.0428 5.20001 16.093 5.20001 16.23C5.20001 16.3654 5.17654 16.4214 5.07882 16.5195C4.9768 16.6218 4.92798 16.6409 4.7703 16.6405C4.3565 16.6393 3.88282 16.3519 3.69904 15.9906C3.61075 15.8169 3.03782 13.8523 3.03782 13.7232C3.03782 13.6117 3.13836 13.4215 3.22363 13.3716C3.26127 13.3496 3.36865 13.3311 3.46222 13.3304C3.59968 13.3295 3.65233 13.3507 3.73648 13.4411Z" fill="#005990"/>
</svg>
