<svg width="19" height="19" viewBox="0 0 19 19" fill="none" xmlns="http://www.w3.org/2000/svg">
<path d="M1.47523 1.47523C1.77962 1.17094 2.1924 1 2.6228 1C3.0532 1 3.46598 1.17094 3.77036 1.47523L9.5098 7.21467L15.2492 1.47523C15.5554 1.17957 15.9654 1.01596 16.391 1.01966C16.8165 1.02336 17.2236 1.19406 17.5246 1.49501C17.8255 1.79595 17.9962 2.20306 17.9999 2.62864C18.0036 3.05422 17.84 3.46423 17.5444 3.77036L11.8049 9.5098L17.5444 15.2492C17.84 15.5554 18.0036 15.9654 17.9999 16.391C17.9962 16.8165 17.8255 17.2236 17.5246 17.5246C17.2236 17.8255 16.8165 17.9962 16.391 17.9999C15.9654 18.0036 15.5554 17.84 15.2492 17.5444L9.5098 11.8049L3.77036 17.5444C3.46423 17.84 3.05422 18.0036 2.62864 17.9999C2.20306 17.9962 1.79595 17.8255 1.49501 17.5246C1.19406 17.2236 1.02336 16.8165 1.01966 16.391C1.01596 15.9654 1.17957 15.5554 1.47523 15.2492L7.21467 9.5098L1.47523 3.77036C1.17094 3.46598 1 3.0532 1 2.6228C1 2.1924 1.17094 1.77962 1.47523 1.47523Z" fill="#005990" stroke="white"/>
</svg>
