<svg width="37" height="40" viewBox="0 0 37 40" fill="none" xmlns="http://www.w3.org/2000/svg">
<path fill-rule="evenodd" clip-rule="evenodd" d="M17.3193 0.0558277C11.9249 0.567355 7.37927 4.65723 6.48426 9.80471C6.3638 10.4976 6.32498 10.5934 6.0497 10.8782C5.51088 11.4356 5.50067 11.4957 5.50067 14.121C5.50067 16.9236 5.58948 17.2393 6.49502 17.6561C6.60926 17.7087 6.7333 17.9634 6.91841 18.526C7.68986 20.8701 9.28203 22.9749 11.4099 24.4635C11.8205 24.7508 11.9494 24.8888 11.9892 25.084C12.1646 25.944 13.6872 26.6352 14.5549 26.2486C15.8809 25.658 14.6997 23.7722 13.0369 23.825C11.6784 23.8681 9.04638 20.9641 8.09643 18.374C7.8501 17.7022 7.85169 17.746 8.07164 17.6909C8.65997 17.5436 9.13351 16.8178 9.21714 15.9352L9.27134 15.364L9.44936 16.0528C10.5447 20.2898 13.5749 23.8191 16.8608 24.685C20.7868 25.7194 25.0817 22.7299 27.0485 17.5936C27.2919 16.9578 27.3957 16.6307 27.6784 15.608L27.7755 15.2562L27.8247 15.9599C27.9666 17.9889 30.3989 18.5873 31.3255 16.8212L31.5292 16.433V14.0856C31.5292 11.4527 31.5239 11.4255 30.8909 10.8047C30.7378 10.6545 30.6124 10.4586 30.6124 10.3693C30.6124 10.0489 30.3574 8.98719 30.0929 8.20602C28.2987 2.90758 22.9868 -0.481577 17.3193 0.0558277ZM20.0496 1.26339C24.4837 1.91775 28.1095 5.09488 29.1719 9.25715C29.4696 10.4234 29.4752 10.3485 29.0833 10.452C28.8537 10.5126 28.613 10.6667 28.3594 10.9154C27.9311 11.3355 27.9779 11.3759 27.8181 10.4482C27.0958 6.25396 23.4891 3.60752 18.495 3.60752C13.5009 3.60752 9.8942 6.25396 9.17193 10.4482C9.12378 10.7277 9.06527 11.041 9.04175 11.1444L8.9991 11.3323L8.82436 11.0897C8.72821 10.9561 8.49718 10.7521 8.3108 10.6362C8.12449 10.5204 7.97199 10.3961 7.97199 10.3602C7.97199 10.3242 7.88119 10.2725 7.77022 10.2452C7.63191 10.2112 7.58064 10.1553 7.60711 10.0678C7.62832 9.99751 7.69863 9.71137 7.76336 9.43188C8.99161 4.12749 14.5255 0.448288 20.0496 1.26339ZM23.8678 29.062C22.7709 31.3018 21.8455 33.14 21.8114 33.1469C21.7772 33.1537 21.3067 31.9808 20.7657 30.5403L19.7819 27.9213L19.4374 27.9601C19.248 27.9814 18.8239 27.9988 18.495 27.9988C18.1662 27.9988 17.7421 27.9814 17.5525 27.9601L17.2079 27.9213L16.1592 30.7141C15.5825 32.2502 15.0852 33.4815 15.054 33.4504C15.0229 33.4193 14.0952 31.5469 12.9924 29.2894C11.8897 27.032 10.9578 25.1546 10.9215 25.1175C10.8429 25.0369 4.67135 27.895 4.05487 28.2976C2.09759 29.5754 0.539624 31.7114 0.126276 33.6837C0.0245537 34.1691 0 34.842 0 37.1432V40H18.5H37L36.9691 36.8924C36.9339 33.3398 36.9431 33.4008 36.2315 31.9866C35.3536 30.2421 33.9819 28.8196 32.3601 27.9719C31.5668 27.5572 26.0399 24.9896 25.9406 24.9896C25.8976 24.9896 24.9648 26.8222 23.8678 29.062Z" fill="#5595BD"/>
</svg>
