<svg width="44" height="40" viewBox="0 0 44 40" fill="none" xmlns="http://www.w3.org/2000/svg">
<path d="M5.699 5.71429V0H9.49833V5.71429H15.1973V9.52381H9.49833V15.2381H5.699V9.52381H0V5.71429H5.699ZM11.398 17.1429V11.4286H17.097V5.71429H30.3946L33.871 9.52381H39.893C41.9826 9.52381 43.6923 11.2381 43.6923 13.3333V36.1905C43.6923 38.2857 41.9826 40 39.893 40H9.49833C7.4087 40 5.699 38.2857 5.699 36.1905V17.1429H11.398ZM24.6957 34.2857C29.9387 34.2857 34.194 30.019 34.194 24.7619C34.194 19.5048 29.9387 15.2381 24.6957 15.2381C19.4526 15.2381 15.1973 19.5048 15.1973 24.7619C15.1973 30.019 19.4526 34.2857 24.6957 34.2857ZM18.6167 24.7619C18.6167 28.1333 21.3332 30.8571 24.6957 30.8571C28.0581 30.8571 30.7746 28.1333 30.7746 24.7619C30.7746 21.3905 28.0581 18.6667 24.6957 18.6667C21.3332 18.6667 18.6167 21.3905 18.6167 24.7619Z" fill="#5595BD"/>
</svg>
