<svg width="24" height="14" viewBox="0 0 24 14" fill="none" xmlns="http://www.w3.org/2000/svg">
<path d="M6.6 7C8.25413 7 9.6 5.69151 9.6 4.08333C9.6 2.47516 8.25413 1.16667 6.6 1.16667C4.94588 1.16667 3.6 2.47516 3.6 4.08333C3.6 5.69151 4.94588 7 6.6 7ZM19.8 2.33333H11.4C11.0685 2.33333 10.8 2.59437 10.8 2.91667V8.16667H2.4V0.583333C2.4 0.261042 2.1315 0 1.8 0H0.6C0.2685 0 0 0.261042 0 0.583333V13.4167C0 13.739 0.2685 14 0.6 14H1.8C2.1315 14 2.4 13.739 2.4 13.4167V11.6667H21.6V13.4167C21.6 13.739 21.8685 14 22.2 14H23.4C23.7315 14 24 13.739 24 13.4167V6.41667C24 4.16135 22.1198 2.33333 19.8 2.33333Z" fill="#005990"/>
</svg>
