<svg width="22" height="16" viewBox="0 0 22 16" fill="none" xmlns="http://www.w3.org/2000/svg">
<path d="M16.9321 5.59937L16.7216 5.52258L14.938 2.11816C14.603 1.47838 14.1035 0.943332 13.4929 0.570238C12.8823 0.197145 12.1836 3.8652e-05 11.4714 3.33274e-09H6.98029C6.15556 -3.42619e-05 5.35174 0.264173 4.68273 0.755179C4.01373 1.24619 3.51347 1.93909 3.25286 2.73569L2.40271 5.3322C1.69047 5.63783 1.08261 6.15056 0.65522 6.80621C0.227833 7.46186 -8.43171e-05 8.23129 2.3399e-08 9.01818V10.7988C2.3399e-08 11.9347 0.664714 12.9105 1.61857 13.3505C1.7421 14.071 2.10437 14.7267 2.64505 15.2083C3.18573 15.69 3.87217 15.9685 4.59004 15.9975C5.30791 16.0265 6.01387 15.8042 6.59033 15.3677C7.16678 14.9312 7.57894 14.3068 7.75814 13.5985H14.2419C14.4211 14.3068 14.8332 14.9312 15.4097 15.3677C15.9861 15.8042 16.6921 16.0265 17.41 15.9975C18.1278 15.9685 18.8143 15.69 19.355 15.2083C19.8956 14.7267 20.2579 14.071 20.3814 13.3505C20.8638 13.1288 21.2731 12.7702 21.5602 12.3175C21.8473 11.8649 22 11.3376 22 10.7988V10.2564C21.9999 9.43081 21.7488 8.62545 21.2812 7.95088C20.8136 7.27632 20.1523 6.76562 19.3883 6.48887L17.0154 5.62976V5.59937H16.9321ZM4.74257 3.24123C4.89901 2.76306 5.19935 2.34717 5.60101 2.05255C6.00266 1.75793 6.48523 1.59953 6.98029 1.59982H8.64286V5.59937H3.971L4.74257 3.24123ZM10.2143 5.59937V1.59982H11.4714C11.8988 1.59966 12.3181 1.71778 12.6846 1.94152C13.051 2.16527 13.3509 2.48623 13.552 2.87008L14.982 5.59937H10.2143ZM3.14286 12.7986C3.14286 12.3743 3.30842 11.9673 3.60312 11.6673C3.89782 11.3673 4.29752 11.1987 4.71429 11.1987C5.13105 11.1987 5.53075 11.3673 5.82545 11.6673C6.12015 11.9673 6.28571 12.3743 6.28571 12.7986C6.28571 13.2229 6.12015 13.6298 5.82545 13.9298C5.53075 14.2298 5.13105 14.3984 4.71429 14.3984C4.29752 14.3984 3.89782 14.2298 3.60312 13.9298C3.30842 13.6298 3.14286 13.2229 3.14286 12.7986ZM17.2857 11.1987C17.7025 11.1987 18.1022 11.3673 18.3969 11.6673C18.6916 11.9673 18.8571 12.3743 18.8571 12.7986C18.8571 13.2229 18.6916 13.6298 18.3969 13.9298C18.1022 14.2298 17.7025 14.3984 17.2857 14.3984C16.8689 14.3984 16.4692 14.2298 16.1745 13.9298C15.8798 13.6298 15.7143 13.2229 15.7143 12.7986C15.7143 12.3743 15.8798 11.9673 16.1745 11.6673C16.4692 11.3673 16.8689 11.1987 17.2857 11.1987Z" fill="#005990"/>
</svg>
