<svg width="201" height="160" viewBox="0 0 201 160" fill="none" xmlns="http://www.w3.org/2000/svg">
<path d="M182.52 67.2H18.68C11.6144 67.2 11 72.9216 11 80C11 87.0784 11.6144 92.8 18.68 92.8H182.52C189.586 92.8 190.2 87.0784 190.2 80C190.2 72.9216 189.586 67.2 182.52 67.2ZM182.52 118.4H18.68C11.6144 118.4 11 124.122 11 131.2C11 138.278 11.6144 144 18.68 144H182.52C189.586 144 190.2 138.278 190.2 131.2C190.2 124.122 189.586 118.4 182.52 118.4ZM18.68 41.6H182.52C189.586 41.6 190.2 35.8784 190.2 28.8C190.2 21.7216 189.586 16 182.52 16H18.68C11.6144 16 11 21.7216 11 28.8C11 35.8784 11.6144 41.6 18.68 41.6Z" fill="#005990"/>
</svg>
