<svg width="201" height="160" viewBox="0 0 201 160" fill="none" xmlns="http://www.w3.org/2000/svg">
<path d="M33.4306 31.5325L149.283 147.385C154.279 152.381 158.759 148.77 163.765 143.765C168.77 138.759 172.381 134.279 167.385 129.283L51.5325 13.4306C46.5364 8.43445 42.0562 12.0458 37.051 17.051C32.0458 22.0562 28.4345 26.5364 33.4306 31.5325Z" fill="#005990"/>
<path d="M33.4306 129.283L149.283 13.4306C154.279 8.43448 158.759 12.0458 163.765 17.051C168.77 22.0562 172.381 26.5364 167.385 31.5325L51.5325 147.385C46.5364 152.381 42.0562 148.77 37.051 143.765C32.0458 138.759 28.4345 134.279 33.4306 129.283Z" fill="#005990"/>
</svg>
