<svg width="176" height="176" viewBox="0 0 176 176" fill="none" xmlns="http://www.w3.org/2000/svg">
<path d="M133.594 53.3713C139.427 53.3713 144.154 48.6435 144.154 42.8113C144.154 36.9792 139.427 32.2513 133.594 32.2513C127.762 32.2513 123.034 36.9792 123.034 42.8113C123.034 48.6435 127.762 53.3713 133.594 53.3713Z" fill="#005990"/>
<path fill-rule="evenodd" clip-rule="evenodd" d="M44 88C44 112.266 63.734 132 88 132C112.266 132 132 112.266 132 88C132 63.734 112.266 44 88 44C63.734 44 44 63.734 44 88ZM66 88C66 75.867 75.867 66 88 66C100.133 66 110 75.867 110 88C110 100.133 100.133 110 88 110C75.867 110 66 100.133 66 88Z" fill="#005990"/>
<path fill-rule="evenodd" clip-rule="evenodd" d="M44 176H132C154.616 176 176 154.616 176 132V44C176 21.384 154.616 0 132 0H44C21.384 0 0 21.384 0 44V132C0 154.616 21.384 176 44 176ZM22 44C22 33.715 33.715 22 44 22H132C142.285 22 154 33.715 154 44V132C154 142.285 142.285 154 132 154H44C33.517 154 22 142.483 22 132V44Z" fill="#005990"/>
</svg>
