<svg width="22" height="23" viewBox="0 0 22 23" fill="none" xmlns="http://www.w3.org/2000/svg">
<path d="M21.9291 6.50422C21.9168 5.57895 21.7436 4.66288 21.4173 3.79698C21.1343 3.0666 20.702 2.40329 20.1481 1.84942C19.5943 1.29555 18.931 0.863301 18.2006 0.580298C17.3458 0.259432 16.4428 0.0859345 15.53 0.0671924C14.3547 0.0146602 13.9821 0 10.9988 0C8.01544 0 7.63305 8.19564e-08 6.46635 0.0671924C5.55395 0.0860723 4.65136 0.259568 3.79698 0.580298C3.06649 0.863103 2.40307 1.29528 1.84917 1.84917C1.29528 2.40307 0.863103 3.06649 0.580298 3.79698C0.25879 4.65109 0.085668 5.55389 0.068414 6.46635C0.0158818 7.64283 0 8.01544 0 10.9988C0 13.9821 -1.49012e-08 14.3633 0.068414 15.5312C0.0867392 16.445 0.258996 17.3466 0.580298 18.203C0.863578 18.9333 1.29607 19.5964 1.85016 20.1501C2.40424 20.7038 3.06771 21.1358 3.7982 21.4185C4.65024 21.7522 5.55299 21.9382 6.46757 21.9682C7.64405 22.0208 8.01666 22.0366 11 22.0366C13.9833 22.0366 14.3657 22.0366 15.5324 21.9682C16.4452 21.9503 17.3483 21.7772 18.203 21.4564C18.9332 21.173 19.5964 20.7407 20.1502 20.1868C20.704 19.633 21.1364 18.9699 21.4197 18.2397C21.741 17.3845 21.9133 16.4829 21.9316 15.5679C21.9841 14.3926 22 14.02 22 11.0354C21.9976 8.05209 21.9976 7.67337 21.9291 6.50422ZM10.9914 16.6405C7.87128 16.6405 5.34363 14.1128 5.34363 10.9927C5.34363 7.8725 7.87128 5.34485 10.9914 5.34485C12.4893 5.34485 13.9259 5.93988 14.9851 6.99906C16.0442 8.05823 16.6393 9.49478 16.6393 10.9927C16.6393 12.4906 16.0442 13.9271 14.9851 14.9863C13.9259 16.0455 12.4893 16.6405 10.9914 16.6405ZM16.8641 6.45291C16.6911 6.45307 16.5197 6.41912 16.3599 6.35299C16.2 6.28686 16.0548 6.18986 15.9325 6.06754C15.8101 5.94521 15.7131 5.79997 15.647 5.64011C15.5809 5.48026 15.5469 5.30893 15.5471 5.13594C15.5471 4.96307 15.5811 4.7919 15.6473 4.63219C15.7134 4.47248 15.8104 4.32737 15.9326 4.20513C16.0549 4.0829 16.2 3.98594 16.3597 3.91978C16.5194 3.85363 16.6906 3.81958 16.8635 3.81958C17.0363 3.81958 17.2075 3.85363 17.3672 3.91978C17.5269 3.98594 17.672 4.0829 17.7943 4.20513C17.9165 4.32737 18.0135 4.47248 18.0796 4.63219C18.1458 4.7919 18.1798 4.96307 18.1798 5.13594C18.1798 5.86406 17.591 6.45291 16.8641 6.45291Z" fill="#5595BD"/>
<path d="M10.9915 14.6614C13.0176 14.6614 14.6602 13.0188 14.6602 10.9927C14.6602 8.9665 13.0176 7.32396 10.9915 7.32396C8.9653 7.32396 7.32277 8.9665 7.32277 10.9927C7.32277 13.0188 8.9653 14.6614 10.9915 14.6614Z" fill="#5595BD"/>
</svg>
