<svg width="22" height="22" viewBox="0 0 22 22" fill="none" xmlns="http://www.w3.org/2000/svg">
<path d="M20.35 0H1.65C0.733334 0 0 0.733333 0 1.55833V20.35C0 21.175 0.733334 21.9083 1.65 21.9083H20.35C21.2667 21.9083 22 21.175 22 20.35V1.55833C22 0.733333 21.2667 0 20.35 0ZM6.50833 18.7H3.3V8.25H6.50833V18.7ZM4.95 6.78333C3.94167 6.78333 3.025 5.95833 3.025 4.85833C3.025 3.75833 3.85 2.93333 4.95 2.93333C5.95833 2.93333 6.875 3.75833 6.875 4.85833C6.875 5.95833 5.95833 6.78333 4.95 6.78333ZM15.5833 18.6083V13.475C15.5833 12.2833 15.5833 10.6333 13.8417 10.6333C12.1 10.6333 11.9167 12.0083 11.9167 13.2917V18.5167H8.70833V8.25H11.7333V9.625H11.825C12.2833 8.8 13.3833 7.88333 14.9417 7.88333C18.2417 7.88333 18.8833 10.0833 18.8833 12.925V18.6083H15.5833Z" fill="#5595BD"/>
</svg>
