<svg width="201" height="201" viewBox="0 0 201 201" fill="none" xmlns="http://www.w3.org/2000/svg">
<path d="M25.5625 50.6248C39.4041 50.6248 50.625 39.4039 50.625 25.5623C50.625 11.7206 39.4041 0.499756 25.5625 0.499756C11.7209 0.499756 0.5 11.7206 0.5 25.5623C0.5 39.4039 11.7209 50.6248 25.5625 50.6248Z" fill="#005990"/>
<path d="M46.4479 67.333H4.67708C2.37133 67.333 0.5 69.2043 0.5 71.5101V196.823C0.5 199.128 2.37133 201 4.67708 201H46.4479C48.7537 201 50.625 199.128 50.625 196.823V71.5101C50.625 69.2043 48.7537 67.333 46.4479 67.333Z" fill="#005990"/>
<path d="M170.9 61.5776C153.047 55.4624 130.716 60.8341 117.325 70.4665C116.865 68.6703 115.228 67.3337 113.281 67.3337H71.5103C69.2046 67.3337 67.3333 69.205 67.3333 71.5107V196.823C67.3333 199.129 69.2046 201 71.5103 201H113.281C115.587 201 117.458 199.129 117.458 196.823V106.765C124.208 100.951 132.905 99.0962 140.023 102.12C146.923 105.036 150.875 112.154 150.875 121.636V196.823C150.875 199.129 152.746 201 155.052 201H196.823C199.129 201 201 199.129 201 196.823V113.223C200.524 78.8958 184.375 66.1891 170.9 61.5776Z" fill="#005990"/>
</svg>
