<svg width="27" height="22" viewBox="0 0 27 22" fill="none" xmlns="http://www.w3.org/2000/svg">
<path d="M27 5.70815V17.7692C27 18.8913 26.5555 19.9674 25.7644 20.7608C24.9732 21.5543 23.9001 22 22.7812 22H4.21875C3.09987 22 2.02681 21.5543 1.23564 20.7608C0.444474 19.9674 0 18.8913 0 17.7692V5.70815L13.0714 13.4217C13.2012 13.4985 13.3492 13.539 13.5 13.539C13.6508 13.539 13.7988 13.4985 13.9286 13.4217L27 5.70815ZM22.7812 5.23813e-08C23.8193 -0.000163673 24.821 0.383488 25.5947 1.07756C26.3683 1.77163 26.8597 2.72739 26.9747 3.762L13.5 11.7108L0.0253127 3.762C0.14033 2.72739 0.631672 1.77163 1.40534 1.07756C2.17901 0.383488 3.18069 -0.000163673 4.21875 5.23813e-08H22.7812Z" fill="#5595BD"/>
</svg>
