<svg width="444" height="444" viewBox="0 0 444 444" fill="none" xmlns="http://www.w3.org/2000/svg">
<path fill-rule="evenodd" clip-rule="evenodd" d="M120.99 92.5C122.1 108.965 124.875 125.06 129.315 140.415L107.115 162.615C99.53 140.415 94.72 116.92 93.055 92.5H120.99V92.5ZM303.4 314.87C319.125 319.31 335.22 322.085 351.5 323.195V350.76C327.08 349.095 303.585 344.285 281.2 336.885L303.4 314.87V314.87ZM138.75 55.5H74C63.825 55.5 55.5 63.825 55.5 74C55.5 247.715 196.285 388.5 370 388.5C380.175 388.5 388.5 380.175 388.5 370V305.435C388.5 295.26 380.175 286.935 370 286.935C347.06 286.935 324.675 283.235 303.955 276.39C302.105 275.65 300.07 275.465 298.22 275.465C293.41 275.465 288.785 277.315 285.085 280.83L244.385 321.53C192.03 294.705 149.11 251.97 122.47 199.615L163.17 158.915C168.35 153.735 169.83 146.52 167.795 140.045C160.95 119.325 157.25 97.125 157.25 74C157.25 63.825 148.925 55.5 138.75 55.5Z" fill="#005990"/>
</svg>
