<svg width="38" height="40" viewBox="0 0 38 40" fill="none" xmlns="http://www.w3.org/2000/svg">
<path d="M33.9796 0H14.0176C11.7956 0 9.99762 1.798 9.99762 4.02V15.294L0.593619 24.578C0.311849 24.8567 0.119221 25.2128 0.0401818 25.6011C-0.0388574 25.9895 -0.00074459 26.3925 0.149683 26.7592C0.300111 27.1258 0.556072 27.4395 0.885082 27.6604C1.21409 27.8813 1.60132 27.9995 1.99762 28V38C1.99762 38.5304 2.20833 39.0391 2.5834 39.4142C2.95848 39.7893 3.46719 40 3.99762 40H35.9976C36.5281 40 37.0368 39.7893 37.4118 39.4142C37.7869 39.0391 37.9976 38.5304 37.9976 38V4.018C37.9976 1.798 36.2016 0 33.9796 0ZM17.8416 36H5.99762V24.864L11.9716 18.966L17.8416 24.972V36ZM21.9976 14H17.9976V10H21.9976V14ZM29.9976 30H25.9976V26H29.9976V30ZM29.9976 22H25.9976V18H29.9976V22ZM29.9976 14H25.9976V10H29.9976V14Z" fill="#5595BD"/>
<path d="M9.99762 26H13.9976V30H9.99762V26Z" fill="#5595BD"/>
</svg>
