<svg width="22" height="22" viewBox="0 0 22 22" fill="none" xmlns="http://www.w3.org/2000/svg">
<path d="M20.3547 5.07335C17.0638 -0.000167847 10.3448 -1.50851 5.13415 1.6453C0.060626 4.79911 -1.58484 11.6552 1.70609 16.7287L1.98034 17.1401L0.883359 21.2538L4.99702 20.1568L5.40839 20.431C7.19098 21.3909 9.11069 21.9394 11.0304 21.9394C13.0872 21.9394 15.1441 21.3909 16.9266 20.2939C22.0002 17.003 23.5085 10.284 20.3547 5.07335ZM17.4751 15.6318C16.9266 16.4545 16.241 17.003 15.2812 17.1401C14.7327 17.1401 14.0471 17.4143 11.3046 16.3174C8.97357 15.2204 7.05386 13.4378 5.68263 11.381C4.8599 10.4211 4.44853 9.18702 4.31141 7.95292C4.31141 6.85594 4.72278 5.89609 5.40839 5.21047C5.68263 4.93623 5.95688 4.79911 6.23112 4.79911H6.91673C7.19098 4.79911 7.46522 4.79911 7.60234 5.3476C7.87659 6.03321 8.5622 7.67867 8.5622 7.81579C8.69932 7.95292 8.69932 8.22716 8.5622 8.36428C8.69932 8.63853 8.5622 8.91277 8.42508 9.04989C8.28796 9.18702 8.15083 9.46126 8.01371 9.59838C7.73947 9.73551 7.60234 10.0097 7.73947 10.284C8.28795 11.1067 8.97357 11.9295 9.65918 12.6151C10.4819 13.3007 11.3046 13.8492 12.2645 14.2605C12.5387 14.3977 12.813 14.3977 12.9501 14.1234C13.0872 13.8492 13.7728 13.1636 14.0471 12.8893C14.3213 12.6151 14.4585 12.6151 14.7327 12.7522L16.9266 13.8492C17.2009 13.9863 17.4751 14.1234 17.6123 14.2605C17.7494 14.6719 17.7494 15.2204 17.4751 15.6318Z" fill="#5595BD"/>
</svg>
