<svg width="235" height="161" viewBox="0 0 235 161" fill="none" xmlns="http://www.w3.org/2000/svg">
<path fill-rule="evenodd" clip-rule="evenodd" d="M208.801 5.02128C218.829 7.6755 226.727 15.4543 229.418 25.3129C234.414 43.3064 234.18 80.8217 234.18 80.8217C234.18 80.8217 234.145 118.13 229.301 136.112C226.575 145.959 218.641 153.727 208.626 156.369C190.302 161.08 116.996 161 116.996 161C116.996 161 43.8898 160.919 25.3791 155.979C15.3398 153.324 7.44173 145.546 4.75055 135.699C-0.0467861 117.889 1.71437e-05 80.3851 1.71437e-05 80.3851C1.71437e-05 80.3851 0.0468206 43.0651 4.87926 25.0716C7.59385 15.2245 15.7142 7.27335 25.5429 4.6421C43.8781 -0.0803437 117.172 8.72773e-05 117.172 8.72773e-05C117.172 8.72773e-05 190.478 0.0805186 208.801 5.02128ZM93.7816 46.0174L93.7231 114.958L154.708 80.5452L93.7816 46.0174Z" fill="#005990"/>
</svg>
